<svg xmlns="http://www.w3.org/2000/svg" viewBox="0 0 512 512">
<defs><linearGradient id="bg" x1="0" y1="0" x2="1" y2="1"><stop stop-color="#fffef8"/><stop offset="1" stop-color="#eaf5d7"/></linearGradient><linearGradient id="apple" x1="0" y1="0" x2="1" y2="1"><stop stop-color="#75c94b"/><stop offset="1" stop-color="#16863b"/></linearGradient><linearGradient id="bolt" x1="0" y1="0" x2="0" y2="1"><stop stop-color="#ffe36b"/><stop offset="1" stop-color="#f4b400"/></linearGradient><filter id="shadow" x="-30%" y="-30%" width="160%" height="160%"><feDropShadow dx="0" dy="18" stdDeviation="18" flood-color="#174b2c" flood-opacity=".18"/></filter></defs>
<rect width="512" height="512" rx="112" fill="url(#bg)"/>
<g filter="url(#shadow)"><path d="M260 146c-25-39-9-80 39-104 4 49-17 87-39 104Z" fill="#1f923f"/><path d="M251 143c-15-36-42-54-77-58 4 40 29 67 77 58Z" fill="#48ae4d"/><path d="M256 166c-56-48-148-21-164 74-17 101 63 204 164 229 101-25 181-128 164-229-16-95-108-122-164-74Z" fill="url(#apple)"/><path d="M256 205c-39-39-105-20-115 47-10 68 40 138 115 161 75-23 125-93 115-161-10-67-76-86-115-47Z" fill="#fffef8"/></g>
<path d="M281 226 212 327h54l-17 89 72-116h-54z" fill="url(#bolt)" stroke="#e0a500" stroke-width="5" stroke-linejoin="round"/>
<circle cx="151" cy="164" r="12" fill="#fff" opacity=".62"/>
</svg>