<svg xmlns="http://www.w3.org/2000/svg" viewBox="0 0 512 512">
<rect width="512" height="512" rx="120" fill="#f7f3e8"/>
<circle cx="256" cy="264" r="152" fill="#dfe9d8"/>
<path d="M257 371c-77 0-126-45-126-115 0-74 63-134 140-134 60 0 110 35 110 95 0 81-54 154-124 154Z" fill="#6f8d72"/>
<path d="M246 118c17-44 54-69 102-71-8 47-39 78-91 87" fill="#e8a96b"/>
<circle cx="217" cy="247" r="10" fill="#28342d"/><circle cx="309" cy="247" r="10" fill="#28342d"/>
<path d="M220 292c25 24 61 24 86 0" fill="none" stroke="#28342d" stroke-width="13" stroke-linecap="round"/>
<path d="M125 246c-34 9-52 31-52 67 35 0 61-18 75-49" fill="#a9c8a8"/>
</svg>